<mxfile host="app.diagrams.net" modified="2024-04-06T08:53:05.843Z" agent="Mozilla/5.0 (Windows NT 10.0; Win64; x64) AppleWebKit/537.36 (KHTML, like Gecko) Chrome/121.0.0.0 Safari/537.36" etag="VEKCLuC9WgDR_DTfYnu5" version="24.2.0" type="device">
  <diagram name="Strona-1" id="lFS3k2IKplxQ-3XxpdJy">
    <mxGraphModel dx="1050" dy="530" grid="1" gridSize="10" guides="1" tooltips="1" connect="1" arrows="1" fold="1" page="1" pageScale="1" pageWidth="827" pageHeight="1169" math="0" shadow="0">
      <root>
        <mxCell id="0" />
        <mxCell id="1" parent="0" />
        <mxCell id="10lTTNACpvp3H57rneZ2-1" value="" style="rounded=0;whiteSpace=wrap;html=1;" vertex="1" parent="1">
          <mxGeometry x="210" y="10" width="430" height="500" as="geometry" />
        </mxCell>
        <mxCell id="10lTTNACpvp3H57rneZ2-2" value="Zaloguj siÄ™" style="rounded=0;whiteSpace=wrap;html=1;" vertex="1" parent="1">
          <mxGeometry x="570" y="20" width="50" height="30" as="geometry" />
        </mxCell>
        <mxCell id="10lTTNACpvp3H57rneZ2-3" value="Wyszukaj" style="rounded=0;whiteSpace=wrap;html=1;" vertex="1" parent="1">
          <mxGeometry x="320" y="20" width="220" height="30" as="geometry" />
        </mxCell>
        <mxCell id="10lTTNACpvp3H57rneZ2-8" value="" style="endArrow=none;html=1;rounded=0;entryX=0.999;entryY=0.107;entryDx=0;entryDy=0;entryPerimeter=0;exitX=0;exitY=0.112;exitDx=0;exitDy=0;exitPerimeter=0;" edge="1" parent="1" source="10lTTNACpvp3H57rneZ2-1" target="10lTTNACpvp3H57rneZ2-1">
          <mxGeometry width="50" height="50" relative="1" as="geometry">
            <mxPoint x="210" y="100" as="sourcePoint" />
            <mxPoint x="260" y="50" as="targetPoint" />
          </mxGeometry>
        </mxCell>
        <mxCell id="10lTTNACpvp3H57rneZ2-9" value="Logo" style="rounded=0;whiteSpace=wrap;html=1;" vertex="1" parent="1">
          <mxGeometry x="230" y="20" width="60" height="30" as="geometry" />
        </mxCell>
        <mxCell id="10lTTNACpvp3H57rneZ2-10" value="" style="endArrow=none;html=1;rounded=0;entryX=1.005;entryY=0.166;entryDx=0;entryDy=0;entryPerimeter=0;exitX=0.004;exitY=0.165;exitDx=0;exitDy=0;exitPerimeter=0;" edge="1" parent="1" source="10lTTNACpvp3H57rneZ2-1" target="10lTTNACpvp3H57rneZ2-1">
          <mxGeometry width="50" height="50" relative="1" as="geometry">
            <mxPoint x="210" y="90" as="sourcePoint" />
            <mxPoint x="440" y="250" as="targetPoint" />
          </mxGeometry>
        </mxCell>
        <mxCell id="10lTTNACpvp3H57rneZ2-11" value="" style="endArrow=none;html=1;rounded=0;exitX=0;exitY=0.478;exitDx=0;exitDy=0;exitPerimeter=0;entryX=1.003;entryY=0.478;entryDx=0;entryDy=0;entryPerimeter=0;" edge="1" parent="1" source="10lTTNACpvp3H57rneZ2-1" target="10lTTNACpvp3H57rneZ2-1">
          <mxGeometry width="50" height="50" relative="1" as="geometry">
            <mxPoint x="390" y="300" as="sourcePoint" />
            <mxPoint x="440" y="250" as="targetPoint" />
          </mxGeometry>
        </mxCell>
        <mxCell id="10lTTNACpvp3H57rneZ2-12" value="Najpopularniejsze" style="rounded=0;whiteSpace=wrap;html=1;" vertex="1" parent="1">
          <mxGeometry x="230" y="100" width="390" height="20" as="geometry" />
        </mxCell>
        <mxCell id="10lTTNACpvp3H57rneZ2-14" value="&lt;div&gt;&lt;br&gt;&lt;/div&gt;&lt;div&gt;&lt;br&gt;&lt;/div&gt;&lt;div&gt;&lt;br&gt;&lt;/div&gt;&lt;div&gt;&lt;br&gt;&lt;/div&gt;&lt;div&gt;&lt;br&gt;&lt;/div&gt;1" style="whiteSpace=wrap;html=1;aspect=fixed;align=left;" vertex="1" parent="1">
          <mxGeometry x="230" y="130" width="100" height="100" as="geometry" />
        </mxCell>
        <mxCell id="10lTTNACpvp3H57rneZ2-15" value="&lt;div&gt;&lt;br&gt;&lt;/div&gt;&lt;div&gt;&lt;br&gt;&lt;/div&gt;&lt;div&gt;&lt;br&gt;&lt;/div&gt;&lt;div&gt;&lt;br&gt;&lt;/div&gt;&lt;div&gt;&lt;br&gt;&lt;/div&gt;&lt;div style=&quot;&quot;&gt;&lt;span style=&quot;background-color: initial;&quot;&gt;2&lt;/span&gt;&lt;/div&gt;" style="whiteSpace=wrap;html=1;aspect=fixed;align=left;" vertex="1" parent="1">
          <mxGeometry x="375" y="130" width="100" height="100" as="geometry" />
        </mxCell>
        <mxCell id="10lTTNACpvp3H57rneZ2-16" value="&lt;div&gt;&lt;br&gt;&lt;/div&gt;&lt;div&gt;&lt;br&gt;&lt;/div&gt;&lt;div&gt;&lt;br&gt;&lt;/div&gt;&lt;div&gt;&lt;br&gt;&lt;/div&gt;&lt;div&gt;&lt;br&gt;&lt;/div&gt;&lt;div style=&quot;&quot;&gt;&lt;span style=&quot;background-color: initial;&quot;&gt;3&lt;/span&gt;&lt;/div&gt;" style="whiteSpace=wrap;html=1;aspect=fixed;align=left;" vertex="1" parent="1">
          <mxGeometry x="520" y="130" width="100" height="100" as="geometry" />
        </mxCell>
        <mxCell id="10lTTNACpvp3H57rneZ2-18" value="" style="verticalLabelPosition=bottom;verticalAlign=top;html=1;shape=mxgraph.basic.smiley" vertex="1" parent="1">
          <mxGeometry x="480" y="100" width="20" height="20" as="geometry" />
        </mxCell>
        <mxCell id="10lTTNACpvp3H57rneZ2-21" value="Kat A" style="rounded=0;whiteSpace=wrap;html=1;" vertex="1" parent="1">
          <mxGeometry x="230" y="70" width="40" height="20" as="geometry" />
        </mxCell>
        <mxCell id="10lTTNACpvp3H57rneZ2-22" value="Kat B" style="rounded=0;whiteSpace=wrap;html=1;" vertex="1" parent="1">
          <mxGeometry x="300" y="70" width="40" height="20" as="geometry" />
        </mxCell>
        <mxCell id="10lTTNACpvp3H57rneZ2-23" value="Kat C" style="rounded=0;whiteSpace=wrap;html=1;" vertex="1" parent="1">
          <mxGeometry x="375" y="70" width="40" height="20" as="geometry" />
        </mxCell>
        <mxCell id="10lTTNACpvp3H57rneZ2-24" value="Kat D" style="rounded=0;whiteSpace=wrap;html=1;" vertex="1" parent="1">
          <mxGeometry x="440" y="70" width="40" height="20" as="geometry" />
        </mxCell>
        <mxCell id="10lTTNACpvp3H57rneZ2-25" value="Kat E" style="rounded=0;whiteSpace=wrap;html=1;" vertex="1" parent="1">
          <mxGeometry x="510" y="70" width="40" height="20" as="geometry" />
        </mxCell>
        <mxCell id="10lTTNACpvp3H57rneZ2-26" value="Kat F" style="rounded=0;whiteSpace=wrap;html=1;" vertex="1" parent="1">
          <mxGeometry x="580" y="70" width="40" height="20" as="geometry" />
        </mxCell>
        <mxCell id="10lTTNACpvp3H57rneZ2-31" value="Recenzje" style="rounded=1;whiteSpace=wrap;html=1;" vertex="1" parent="1">
          <mxGeometry x="330" y="260" width="190" height="30" as="geometry" />
        </mxCell>
        <mxCell id="10lTTNACpvp3H57rneZ2-32" value="" style="whiteSpace=wrap;html=1;aspect=fixed;" vertex="1" parent="1">
          <mxGeometry x="230" y="330" width="100" height="100" as="geometry" />
        </mxCell>
        <mxCell id="10lTTNACpvp3H57rneZ2-33" value="" style="whiteSpace=wrap;html=1;aspect=fixed;" vertex="1" parent="1">
          <mxGeometry x="375" y="330" width="100" height="100" as="geometry" />
        </mxCell>
        <mxCell id="10lTTNACpvp3H57rneZ2-34" value="" style="whiteSpace=wrap;html=1;aspect=fixed;" vertex="1" parent="1">
          <mxGeometry x="520" y="330" width="100" height="100" as="geometry" />
        </mxCell>
      </root>
    </mxGraphModel>
  </diagram>
</mxfile>
